<?xml version="1.0" standalone="no"?>
<!DOCTYPE svg PUBLIC "-//W3C//DTD SVG 20010904//EN"
 "http://www.w3.org/TR/2001/REC-SVG-20010904/DTD/svg10.dtd">
<svg version="1.0" xmlns="http://www.w3.org/2000/svg"
 width="400.000000pt" height="400.000000pt" viewBox="0 0 400.000000 400.000000"
 preserveAspectRatio="xMidYMid meet">
<metadata>
Created by potrace 1.11, written by Peter Selinger 2001-2013
</metadata>
<g transform="translate(0.000000,400.000000) scale(0.100000,-0.100000)"
fill="#000000" stroke="none">
<path d="M1130 3418 c-7 -35 -14 -72 -16 -83 -32 -154 -16 -367 34 -457 l19
-33 -121 0 c-118 0 -268 -11 -313 -22 -17 -4 -23 -13 -24 -34 -1 -16 -3 -33
-4 -39 -1 -5 -3 -20 -4 -32 -1 -19 -12 -26 -61 -42 -65 -20 -68 -24 -79 -128
-1 -5 -9 -8 -18 -8 -35 -1 -55 -27 -58 -74 -4 -59 -6 -61 -59 -76 -25 -7 -52
-20 -61 -30 -12 -13 -26 -16 -60 -12 -38 4 -44 2 -43 -14 0 -11 -2 -41 -5 -69
-4 -27 -9 -87 -12 -132 -3 -45 -7 -101 -10 -125 -2 -23 -7 -79 -10 -123 -3
-44 -7 -100 -10 -125 -6 -61 -13 -156 -21 -265 -3 -49 -7 -108 -10 -130 -2
-22 -6 -76 -9 -120 -4 -44 -8 -102 -10 -130 -13 -160 -18 -223 -19 -245 -1
-23 3 -25 39 -25 22 1 63 4 90 8 174 26 180 27 308 42 23 3 80 10 127 15 47 6
117 13 155 15 39 3 84 7 100 10 17 2 73 7 125 11 52 3 113 7 135 9 38 3 285
14 425 19 61 2 67 0 95 -29 38 -40 66 -55 132 -71 49 -11 153 -12 220 0 58 9
143 63 143 91 0 7 20 11 58 9 188 -7 393 -16 432 -19 25 -2 86 -6 135 -9 50
-3 101 -8 115 -10 14 -3 64 -7 112 -10 48 -4 93 -8 100 -10 7 -3 45 -7 83 -11
39 -3 86 -8 105 -10 19 -3 53 -7 75 -9 22 -3 102 -14 178 -25 195 -29 178 -34
172 52 -2 39 -7 115 -10 167 -3 52 -8 106 -10 118 -2 13 -7 72 -10 130 -4 59
-8 118 -10 132 -2 14 -7 70 -10 125 -3 55 -8 116 -10 135 -3 19 -7 71 -10 115
-3 44 -8 105 -10 135 -3 30 -7 78 -10 105 -2 28 -7 88 -10 135 -3 47 -8 94
-10 105 -2 11 -4 24 -4 28 -1 5 -19 7 -41 4 -29 -3 -46 1 -60 13 -11 9 -40 25
-65 34 -25 10 -45 21 -46 24 0 4 -3 27 -5 52 -3 25 -8 46 -12 48 -4 1 -22 11
-39 22 -29 17 -33 25 -33 65 0 46 -13 61 -59 68 -11 2 -24 6 -27 10 -4 4 -15
7 -25 7 -14 0 -19 12 -24 65 -5 47 -12 66 -24 69 -31 10 -197 20 -323 20 -71
0 -128 1 -128 2 0 2 9 18 20 36 52 89 69 295 37 448 -9 41 -19 91 -22 110 -3
19 -8 36 -10 39 -7 7 -148 -47 -236 -90 -134 -65 -170 -89 -238 -157 l-64 -64
-46 12 c-128 32 -400 33 -510 1 -32 -10 -35 -8 -80 41 -52 59 -139 117 -261
175 -79 37 -199 83 -219 83 -5 0 -14 -28 -21 -62z"/>
</g>
</svg>
